<?xml version="1.0" encoding="UTF-8"?>
<svg id="Layer_1" data-name="Layer 1" xmlns="http://www.w3.org/2000/svg" viewBox="0 0 241.74 72.89">
  <defs>
    <style>
      .cls-1, .cls-2, .cls-3 {
        stroke-width: 0px;
      }

      .cls-2 {
        fill: #53b2c1;
      }

      .cls-3 {
        fill: #fff;
      }
    </style>
  </defs>
  <rect class="cls-2" x="111.03" width="130.71" height="72.89" rx="30.13" ry="30.13"/>
  <g>
    <path class="cls-1" d="m0,12.83h13.09l4.56,16.22h.13l4.56-16.22h13.29l-11.85,28.2v18.3h-12.12v-18.3L0,12.83Z"/>
    <path class="cls-1" d="m35.17,24.98c.56-3.06,1.5-5.56,2.8-7.49,1.3-1.93,3.02-3.34,5.15-4.23,2.13-.89,4.73-1.34,7.82-1.34s5.69.45,7.82,1.34c2.13.89,3.84,2.3,5.15,4.23,1.3,1.93,2.24,4.43,2.8,7.49.56,3.06.85,6.76.85,11.11s-.28,8.04-.85,11.11c-.56,3.06-1.5,5.56-2.8,7.49-1.3,1.93-3.02,3.31-5.15,4.14-2.13.82-4.73,1.24-7.82,1.24s-5.69-.41-7.82-1.24c-2.13-.82-3.84-2.2-5.15-4.14-1.3-1.93-2.24-4.43-2.8-7.49-.56-3.06-.85-6.76-.85-11.11s.28-8.04.85-11.11Zm11.79,18.89c.09,2.06.27,3.7.55,4.92.28,1.22.69,2.06,1.24,2.54.54.48,1.27.72,2.18.72s1.64-.24,2.18-.72c.54-.48.95-1.32,1.24-2.54.28-1.21.47-2.85.55-4.92.09-2.06.13-4.66.13-7.78s-.04-5.72-.13-7.78c-.09-2.06-.27-3.7-.55-4.92-.28-1.22-.69-2.06-1.24-2.54-.54-.48-1.27-.72-2.18-.72s-1.64.24-2.18.72c-.54.48-.96,1.33-1.24,2.54-.28,1.22-.47,2.86-.55,4.92-.09,2.06-.13,4.66-.13,7.78s.04,5.72.13,7.78Z"/>
    <path class="cls-1" d="m83.5,46.38c0,2.26.33,3.77.98,4.53.65.76,1.54,1.14,2.67,1.14s2.02-.38,2.67-1.14c.65-.76.98-2.27.98-4.53V12.83h12.12v30.48c0,3.26-.35,5.97-1.04,8.14-.69,2.17-1.7,3.91-3.03,5.21-1.33,1.3-2.96,2.19-4.92,2.67s-4.21.72-6.77.72-4.77-.24-6.74-.72c-1.98-.48-3.63-1.37-4.95-2.67-1.33-1.3-2.33-3.04-3.03-5.21-.7-2.17-1.04-4.89-1.04-8.14V12.83h12.12v33.55Z"/>
    <path class="cls-3" d="m124.08,23.12v-10.29h30.22v10.29h-9.12v36.22h-12.12V23.12h-8.99Z"/>
    <path class="cls-3" d="m156.52,24.98c.56-3.06,1.5-5.56,2.8-7.49,1.3-1.93,3.02-3.34,5.15-4.23,2.13-.89,4.73-1.34,7.82-1.34s5.69.45,7.82,1.34c2.13.89,3.84,2.3,5.15,4.23,1.3,1.93,2.24,4.43,2.8,7.49.56,3.06.85,6.76.85,11.11s-.28,8.04-.85,11.11c-.56,3.06-1.5,5.56-2.8,7.49-1.3,1.93-3.02,3.31-5.15,4.14-2.13.82-4.73,1.24-7.82,1.24s-5.69-.41-7.82-1.24c-2.13-.82-3.84-2.2-5.15-4.14-1.3-1.93-2.24-4.43-2.8-7.49-.56-3.06-.85-6.76-.85-11.11s.28-8.04.85-11.11Zm11.79,18.89c.09,2.06.27,3.7.55,4.92.28,1.22.69,2.06,1.24,2.54.54.48,1.27.72,2.18.72s1.64-.24,2.18-.72c.54-.48.95-1.32,1.24-2.54.28-1.21.47-2.85.55-4.92.09-2.06.13-4.66.13-7.78s-.04-5.72-.13-7.78c-.09-2.06-.27-3.7-.55-4.92-.28-1.22-.69-2.06-1.24-2.54-.54-.48-1.27-.72-2.18-.72s-1.64.24-2.18.72c-.54.48-.96,1.33-1.24,2.54-.28,1.22-.47,2.86-.55,4.92-.09,2.06-.13,4.66-.13,7.78s.04,5.72.13,7.78Z"/>
    <path class="cls-3" d="m192.74,24.98c.56-3.06,1.5-5.56,2.8-7.49,1.3-1.93,3.02-3.34,5.15-4.23,2.13-.89,4.73-1.34,7.82-1.34s5.69.45,7.82,1.34c2.13.89,3.84,2.3,5.15,4.23,1.3,1.93,2.24,4.43,2.8,7.49.56,3.06.85,6.76.85,11.11s-.28,8.04-.85,11.11c-.56,3.06-1.5,5.56-2.8,7.49-1.3,1.93-3.02,3.31-5.15,4.14-2.13.82-4.73,1.24-7.82,1.24s-5.69-.41-7.82-1.24c-2.13-.82-3.84-2.2-5.15-4.14-1.3-1.93-2.24-4.43-2.8-7.49-.56-3.06-.85-6.76-.85-11.11s.28-8.04.85-11.11Zm11.79,18.89c.09,2.06.27,3.7.55,4.92.28,1.22.69,2.06,1.24,2.54.54.48,1.27.72,2.18.72s1.64-.24,2.18-.72c.54-.48.95-1.32,1.24-2.54.28-1.21.47-2.85.55-4.92.09-2.06.13-4.66.13-7.78s-.04-5.72-.13-7.78c-.09-2.06-.27-3.7-.55-4.92-.28-1.22-.69-2.06-1.24-2.54-.54-.48-1.27-.72-2.18-.72s-1.64.24-2.18.72c-.54.48-.96,1.33-1.24,2.54-.28,1.22-.47,2.86-.55,4.92-.09,2.06-.13,4.66-.13,7.78s.04,5.72.13,7.78Z"/>
  </g>
</svg>