<?xml version="1.0" encoding="UTF-8"?>
<svg id="Layer_1" data-name="Layer 1" xmlns="http://www.w3.org/2000/svg" viewBox="0 0 190.03 82.72">
  <defs>
    <style>
      .cls-1, .cls-2, .cls-3 {
        stroke-width: 0px;
      }

      .cls-2 {
        fill: #53b2c1;
      }

      .cls-3 {
        fill: #fff;
      }
    </style>
  </defs>
  <g>
    <path class="cls-1" d="m0,10.12h12.62l4.4,15.63h.13l4.4-15.63h12.81l-11.43,27.19v17.64h-11.68v-17.64L0,10.12Z"/>
    <path class="cls-1" d="m33.9,21.83c.54-2.95,1.44-5.36,2.7-7.22,1.26-1.86,2.91-3.22,4.96-4.08,2.05-.86,4.56-1.29,7.53-1.29s5.48.43,7.53,1.29c2.05.86,3.7,2.22,4.96,4.08,1.26,1.86,2.16,4.27,2.7,7.22.54,2.95.82,6.52.82,10.71s-.27,7.75-.82,10.71c-.54,2.95-1.44,5.36-2.7,7.22-1.26,1.86-2.91,3.19-4.96,3.99-2.05.79-4.56,1.19-7.53,1.19s-5.48-.4-7.53-1.19c-2.05-.79-3.7-2.12-4.96-3.99-1.26-1.86-2.16-4.27-2.7-7.22-.54-2.95-.82-6.52-.82-10.71s.27-7.75.82-10.71Zm11.36,18.21c.08,1.99.26,3.57.53,4.74.27,1.17.67,1.99,1.19,2.45.52.46,1.22.69,2.1.69s1.58-.23,2.1-.69c.52-.46.92-1.28,1.19-2.45.27-1.17.45-2.75.53-4.74.08-1.99.13-4.49.13-7.5s-.04-5.51-.13-7.5c-.08-1.99-.26-3.57-.53-4.74-.27-1.17-.67-1.99-1.19-2.45-.52-.46-1.22-.69-2.1-.69s-1.58.23-2.1.69c-.52.46-.92,1.28-1.19,2.45-.27,1.17-.45,2.75-.53,4.74-.08,1.99-.13,4.49-.13,7.5s.04,5.52.13,7.5Z"/>
    <path class="cls-1" d="m80.49,42.46c0,2.18.31,3.63.94,4.36.63.73,1.48,1.1,2.57,1.1s1.95-.37,2.57-1.1c.63-.73.94-2.19.94-4.36V10.12h11.68v29.38c0,3.14-.34,5.76-1,7.85-.67,2.09-1.64,3.77-2.92,5.02-1.28,1.26-2.86,2.11-4.74,2.57s-4.06.69-6.53.69-4.59-.23-6.5-.69c-1.91-.46-3.5-1.32-4.77-2.57-1.28-1.26-2.25-2.93-2.92-5.02-.67-2.09-1-4.71-1-7.85V10.12h11.68v32.34Z"/>
  </g>
  <g>
    <path class="cls-2" d="m170.96,0h-44.58c-10.53,0-19.07,11.99-19.07,26.79v11.23c0,14.8,8.54,26.79,19.07,26.79h10.07l-6.24,17.91,31.73-17.91h9.02c10.53,0,19.07-11.99,19.07-26.79v-11.23c0-14.8-8.54-26.79-19.07-26.79Z"/>
    <path class="cls-3" d="m115.57,20.56v-9.15h19.13v9.15h-5.77v32.2h-7.67V20.56h-5.69Z"/>
    <path class="cls-3" d="m136.1,22.21c.36-2.72.95-4.94,1.77-6.66.82-1.72,1.91-2.97,3.26-3.76,1.35-.79,2.99-1.19,4.95-1.19s3.6.4,4.95,1.19c1.35.79,2.43,2.05,3.26,3.76.82,1.72,1.42,3.94,1.77,6.66.36,2.72.54,6.01.54,9.87s-.18,7.15-.54,9.87c-.36,2.72-.95,4.94-1.77,6.66-.82,1.72-1.91,2.94-3.26,3.68-1.35.73-3,1.1-4.95,1.1s-3.6-.37-4.95-1.1c-1.35-.73-2.43-1.96-3.26-3.68-.82-1.72-1.42-3.94-1.77-6.66-.36-2.72-.54-6.01-.54-9.87s.18-7.15.54-9.87Zm7.46,16.8c.05,1.83.17,3.29.35,4.37.18,1.08.44,1.83.78,2.26.34.43.8.64,1.38.64s1.04-.21,1.38-.64c.34-.42.6-1.18.78-2.26.18-1.08.3-2.54.35-4.37.05-1.83.08-4.14.08-6.92s-.03-5.09-.08-6.92c-.06-1.83-.17-3.29-.35-4.37-.18-1.08-.44-1.83-.78-2.26-.34-.42-.8-.64-1.38-.64s-1.04.21-1.38.64c-.34.43-.6,1.18-.78,2.26-.18,1.08-.3,2.54-.35,4.37-.06,1.83-.08,4.14-.08,6.92s.03,5.09.08,6.92Z"/>
    <path class="cls-3" d="m159.01,22.21c.36-2.72.95-4.94,1.77-6.66.82-1.72,1.91-2.97,3.26-3.76,1.35-.79,2.99-1.19,4.95-1.19s3.6.4,4.95,1.19c1.35.79,2.43,2.05,3.26,3.76.82,1.72,1.42,3.94,1.77,6.66.36,2.72.54,6.01.54,9.87s-.18,7.15-.54,9.87c-.36,2.72-.95,4.94-1.77,6.66-.82,1.72-1.91,2.94-3.26,3.68-1.35.73-3,1.1-4.95,1.1s-3.6-.37-4.95-1.1c-1.35-.73-2.43-1.96-3.26-3.68-.82-1.72-1.42-3.94-1.77-6.66-.36-2.72-.54-6.01-.54-9.87s.18-7.15.54-9.87Zm7.46,16.8c.05,1.83.17,3.29.35,4.37.18,1.08.44,1.83.78,2.26.34.43.8.64,1.38.64s1.04-.21,1.38-.64c.34-.42.6-1.18.78-2.26.18-1.08.3-2.54.35-4.37.05-1.83.08-4.14.08-6.92s-.03-5.09-.08-6.92c-.06-1.83-.17-3.29-.35-4.37-.18-1.08-.44-1.83-.78-2.26-.34-.42-.8-.64-1.38-.64s-1.04.21-1.38.64c-.34.43-.6,1.18-.78,2.26-.18,1.08-.3,2.54-.35,4.37-.06,1.83-.08,4.14-.08,6.92s.03,5.09.08,6.92Z"/>
  </g>
</svg>